<svg xmlns="http://www.w3.org/2000/svg" width="32" height="32" viewBox="0 0 1024 1024">
  <path d="M768.4 54c84.633 0 160.861 47.388 199.027 121.218A32 32 0 0 1 971 189.912v176.026a32 32 0 0 1-3.573 14.694C929.262 454.462 853.033 501.85 768.4 501.85a225.65 225.65 0 0 1-30.791-2.104l-1.185-0.167 0.001 439.421c0 17.496-14.042 31.713-31.47 32h-128.48c-17.673 0-32-14.327-32-32V277.925C544.475 154.255 644.729 54 768.4 54z m-511.8 0c123.67 0 223.925 100.254 223.925 223.925V939c0 17.673-14.327 32-32 32h-127.95c-17.673 0-32-14.327-32-32V499.579l-1.184 0.167a225.555 225.555 0 0 1-29.439 2.1l-1.352 0.004c-84.633 0-160.86-47.388-199.026-121.218A32 32 0 0 1 54 365.938V189.912a32 32 0 0 1 3.574-14.694C95.74 101.388 171.967 54 256.6 54z m511.8 64c-88.325 0-159.926 71.6-159.926 159.925V907h63.95l0.001-448.07c0-21.864 21.406-37.22 42.038-30.386l0.625 0.214c16.955 5.992 34.9 9.092 53.312 9.092 57.444 0 109.436-30.536 137.88-78.835l0.719-1.238V198.072l-0.718-1.237c-28.146-47.79-79.346-78.19-136.069-78.825z m-511.8 0c-57.444 0-109.435 30.536-137.88 78.835l-0.72 1.237v159.705l0.72 1.238c28.145 47.791 79.344 78.19 136.068 78.825l1.812 0.01c18.411 0 36.357-3.1 53.312-9.092 20.822-7.358 42.663 8.087 42.663 30.171V907h63.95V277.925c0-87.441-70.176-158.491-157.28-159.904z m63.975 127.925c17.673 0 32 14.327 32 32 0 17.496-14.042 31.713-31.47 31.996l-0.53 0.004H299.25c-17.673 0-32-14.327-32-32 0-17.496 14.042-31.713 31.47-31.996l0.53-0.004h21.325z m405.175 0c17.673 0 32 14.327 32 32 0 17.496-14.042 31.713-31.47 31.996l-0.53 0.004h-21.325c-17.673 0-32-14.327-32-32 0-17.496 14.042-31.713 31.47-31.996l0.53-0.004h21.325z" fill="currentColor"/>
</svg>
