<svg xmlns="http://www.w3.org/2000/svg" viewBox="0 0 1024 1024" width="32" height="32">
  <path d="M398.824 978.568c-15.824-3.76-29.072-12.536-47.6-31.552-30.968-31.76-56.104-44.992-99.776-52.504-45.312-7.8-65.44-24.648-77.552-64.864-14.936-49.656-30.56-73.44-64.864-98.776-38.928-28.752-48.912-54.104-39.416-100.056 8.8-42.56 5.432-72.808-12.44-111.712-21.328-46.408-18.696-71.208 11.6-109.24 27.76-34.856 36.48-57.896 40.632-107.448 4.192-50 18.104-70.52 59.08-87.12 34.192-13.856 63.44-37.912 79.664-65.504 18.752-31.92 21.488-35.568 33.112-44.24 18.752-13.992 33.912-17.864 62.784-16.056 50.16 3.144 77.04-2.88 110.72-24.8 43.92-28.592 70.544-28.592 114.456 0 33.68 21.92 60.56 27.944 110.72 24.8 47.432-2.976 67.168 9.472 96.08 60.616 14.32 25.336 43.608 50 75.664 63.72 45.648 19.536 58.912 37.36 62.28 83.704 3.648 50.184 13.936 78.24 41.192 112.328 30.352 37.96 33 62.784 11.656 109.24-17.864 38.904-21.24 69.16-12.44 111.712 9.504 45.944-0.488 71.304-39.408 100.056-34.312 25.344-49.928 49.12-64.872 98.776-12.104 40.216-32.24 57.064-77.552 64.864-43.76 7.528-68.92 20.8-99.76 52.608-34.2 35.264-58.712 41.08-106.512 25.28-39.096-12.928-69.2-12.984-108.136-0.2-27.28 8.952-41.816 10.512-59.312 6.368z" fill="#FFFFFF"/>
  <path d="M680.04 472.24a12.112 12.112 0 0 1 5.6-16.208 12.112 12.112 0 0 1 16.208 5.6 12.112 12.112 0 0 1-5.6 16.208 12.112 12.112 0 0 1-16.208-5.6z m58.616 120.48a12.104 12.104 0 0 1 5.6-16.208 12.112 12.112 0 0 1 16.208 5.6 12.112 12.112 0 0 1-5.6 16.208 12.104 12.104 0 0 1-16.208-5.6z m5.12-156.328c-38.56-27.528-88.856-34.64-135.424-16.624l127.288 261.744c42.896-25.48 68.32-69.52 70.488-116.8l48.312 3.424a5.008 5.008 0 0 0 5.36-4.696 5 5 0 0 0-4.696-5.36l-48.92-3.496c-0.48-20.6-5.416-41.624-15.24-61.864-9.816-20.184-23.312-37.048-39.216-50.184l27.472-40.664a5.04 5.04 0 0 0-8.32-5.664l-27.104 40.12" fill="#3DDC84"/>
  <path d="M626.424 534.944c-35.904 17.352-74.52 26.144-114.76 26.144a264.056 264.056 0 0 1-221.024-119.28 12.048 12.048 0 0 0-17.232-3.064l-46.2 34.032a12.16 12.16 0 0 0-2.776 16.624 345.488 345.488 0 0 0 287.232 153.136c52.592 0 103.136-11.504 150.184-34.216l-35.424-73.376zM511.248 245.36h25v-55.232c0-13.8-11.2-25-25-25a25.016 25.016 0 0 0-25 25v55.24h25z" fill="#4285F4"/>
  <path d="M446.184 353.2L274.312 706.936a58.464 58.464 0 0 0-5.904 24.456l-1.024 46.328c-0.24 11.984 13.616 18.736 22.896 11.144l35.784-29.4a58.72 58.72 0 0 0 15.6-19.76l169.4-348.736-64.824-37.712-0.056-0.056zM754.136 731.336a59.384 59.384 0 0 0-5.904-24.464L576.368 353.136l-64.824 37.84 169.4 348.608a59.304 59.304 0 0 0 15.6 19.76l35.784 29.4c9.28 7.592 23.2 0.84 22.896-11.144l-1.024-46.32-0.064 0.056z" fill="#4285F4"/>
  <path d="M511.24 240.968c-41.384 0-75 33.68-75 75 0 41.328 33.68 75 75 75 41.328 0 75-33.68 75-75 0-41.328-33.672-75-75-75z m0 116.264a41.328 41.328 0 0 1-41.264-41.264 41.288 41.288 0 0 1 41.264-41.264 41.288 41.288 0 0 1 41.272 41.264 41.288 41.288 0 0 1-41.272 41.264z" fill="#073042"/>
</svg>
