<svg xmlns="http://www.w3.org/2000/svg" viewBox="0 0 1024 1024" width="32" height="32">
  <path d="M512 512c0-94.4 76.8-171.2 171.2-171.2 94.4 0 171.2 76.8 171.2 171.2s-76.8 171.2-171.2 171.2C588.8 683.2 512 606.4 512 512z" fill="#1ABCFE"/>
  <path d="M171.2 852.8c0-94.4 76.8-171.2 171.2-171.2H512v171.2C512 947.2 435.2 1024 340.8 1024s-169.6-76.8-169.6-171.2z" fill="#0ACF83"/>
  <path d="M512 0v340.8h171.2c94.4 0 171.2-76.8 171.2-171.2S777.6 0 683.2 0H512z" fill="#FF7262"/>
  <path d="M171.2 171.2c0 94.4 76.8 171.2 171.2 171.2H512V0H340.8c-94.4 0-169.6 76.8-169.6 171.2z" fill="#F24E1E"/>
  <path d="M171.2 512c0 94.4 76.8 171.2 171.2 171.2H512V340.8H340.8c-94.4 0-169.6 76.8-169.6 171.2z" fill="#A259FF"/>
</svg>
