<svg xmlns="http://www.w3.org/2000/svg" width="32" height="32" viewBox="0 0 1024 1024">
  <path d="M895.976001 91.898256c0-16.63896-12.7992-30.206112-28.734204-30.270108h-35.965752c-25.534404 0-49.404912 13.11918-63.868008 35.069808l-26.622336 39.933505a23.230548 23.230548 0 0 1-20.670708 10.623336 23.422536 23.422536 0 0 1-19.454784-12.863196l-34.109868-65.275921A126.008124 126.008124 0 0 0 555.51728 0H468.738704a125.944128 125.944128 0 0 0-110.777077 68.987688l-34.365852 65.595901a23.422536 23.422536 0 0 1-19.51878 12.7992 22.974564 22.974564 0 0 1-20.670708-10.55934l-26.750328-40.253485A77.11518 77.11518 0 0 0 192.659959 61.500156H156.822199A29.566152 29.566152 0 0 0 128.023999 91.770264v208.498969c0.127992 0.767952 2.431848 18.23886 11.83926 35.83776 10.111368 18.622836 24.382476 30.590088 41.853384 35.325792v518.687582c0 27.262296 16.95894 50.428848 40.31748 58.428349l7.295544 34.941816c4.863696 23.422536 24.894444 40.445472 47.67702 40.445472h469.92263a49.724892 49.724892 0 0 0 47.67702-40.445472l7.167552-34.87782a61.180176 61.180176 0 0 0 40.31748-58.492345V370.728829c36.47772-12.991188 52.47672-65.083932 53.372664-68.47572 0.255984-1.215924 0.447972-71.35554 0.511968-210.354853z m-690.06887 36.605713c10.175364 0 14.463096 1.663896 24.254484 8.127492 9.791388 6.527592 11.51928 13.631148 21.11868 27.326292l28.926192 34.045872c16.63896 14.143116 41.661396 12.607212 59.83626 0a40.765452 40.765452 0 0 0 12.607212-13.695144l36.861697-76.795201c16.382976-30.270108 47.997-49.084932 82.362852-49.148928h77.627148c34.301856 0 65.91588 18.814824 82.362852 49.020936l49.084933 80.506969c20.286732 19.966752 35.83776 15.487032 49.788888 16.126992 11.583276-4.47972 28.350228-17.91888 36.413724-29.43816l19.1988-26.55834c9.407412-13.631148 13.43916-12.415224 23.614524-14.143116a28.414224 28.414224 0 0 1 15.807012 2.751828c5.695644 3.327792 5.695644 2.751828 6.71958 6.783576l-1.023936 138.743328-638.040122-5.11968c-0.383976-85.75464-0.383976-130.295857 0-133.623648 0.447972-4.991688 2.303856-14.911068 12.47922-14.911068zM661.750641 399.975002v80.63496h-47.485033V399.975002h47.485033z m-126.520093 0v80.63496h-47.485032V399.975002h47.485032z m-124.7922 0v80.63496H362.889319V399.975002h47.485033z m-120.568465 0v80.63496h-47.485032V399.975002h47.485032z m493.409162 0v80.63496h-47.485032V399.975002h47.485032z m-121.528404 426.085369v80.634961h-47.485033v-80.634961h47.485033z m-126.520093 0v80.634961h-47.485032v-80.634961h47.485032z m-124.7922 0v80.634961H362.889319v-80.634961h47.485033z m-120.568465 0v80.634961h-15.487032a31.998 31.998 0 0 1-31.998-31.998001v-48.63696h47.485032z m496.416974 0v48.63696a31.998 31.998 0 0 1-31.998 31.998001h-15.487032v-80.634961h47.485032zM243.216799 524.255234h541.726142v254.512093H243.216799V524.255234z m484.96169 449.315918H310.348603c-10.23936 0-14.847072-6.143616-18.110868-12.223236a129.399913 129.399913 0 0 1-6.591588-14.847072l465.890882-0.063996a49.468908 49.468908 0 0 1-4.607712 14.911068c-3.1998 6.335604-6.911568 12.223236-18.814824 12.223236z m73.723392-626.904819l-583.259546-1.343916c-10.23936 0-14.71908-6.207612-18.046872-12.287232a129.399913 129.399913 0 0 1-6.655584-14.847072l631.384538 1.27992a49.468908 49.468908 0 0 1-4.607712 14.911068c-3.1998 6.3996-6.911568 12.287232-18.814824 12.287232z" fill="currentColor"/>
</svg>
