<svg xmlns="http://www.w3.org/2000/svg" width="32" height="32" viewBox="0 0 1024 1024">
  <path d="M726 54c53.02 0 96 42.98 96 96v725c0 53.02-42.98 96-96 96H299c-53.02 0-96-42.98-96-96V150c0-53.02 42.98-96 96-96z m0 64H299c-17.673 0-32 14.327-32 32v725c0 17.673 14.327 32 32 32h427c17.673 0 32-14.327 32-32V150c0-17.673-14.327-32-32-32zM597.885 779.05c17.673 0 32 14.327 32 32 0 17.496-14.042 31.713-31.471 31.996l-0.53 0.004H427.116c-17.673 0-32-14.327-32-32 0-17.496 14.042-31.713 31.471-31.996l0.53-0.004h170.769z m-42.693-597.1c17.673 0 32 14.327 32 32 0 17.496-14.041 31.713-31.47 31.996l-0.53 0.004h-85.384c-17.673 0-32-14.327-32-32 0-17.496 14.041-31.713 31.47-31.996l0.53-0.004h85.384z" fill="currentColor"/>
</svg>
