<svg xmlns="http://www.w3.org/2000/svg" width="32" height="32" viewBox="0 0 1024 1024">
  <path d="M640 971.008h-256q-108.992 0-156-47.008T180.992 768V256q0-108.992 47.008-156T384 52.992h256q108.992 0 156 47.008T843.008 256v512q0 108.992-47.008 156T640 971.008zM384 116.992q-83.008 0-111.008 28T244.992 256v512q0 83.008 28 111.008t111.008 28h256q83.008 0 111.008-28T779.008 768V256q0-83.008-28-111.008T640 116.992h-256zM512 800q-66.016 0-112.992-47.008T352 640t47.008-112.992T512 480t112.992 47.008T672 640t-47.008 112.992T512 800z m0-256q-40 0-68 28T416 640t28 68T512 736t68-28T608 640t-28-68T512 544z m0-128q-40 0-68-28T416 320t28-68T512 224t68 28T608 320t-28 68T512 416z m0-128q-12.992 0-22.016 8.992-10.016 10.016-10.016 23.008t8.992 22.016q10.016 10.016 23.008 10.016t22.016-8.992q10.016-10.016 10.016-23.008t-8.992-22.016Q524.992 288 512 288z" fill="currentColor"/>
</svg>
